<?xml version="1.0" encoding="UTF-8"?>
<svg width="24px" height="24px" viewBox="0 0 24 24" version="1.1" xmlns="http://www.w3.org/2000/svg">
    <g stroke="none" stroke-width="1" fill="none" fill-rule="evenodd">
        <path d="M17.05,12.536 C17.05,9.936 19.15,8.836 19.25,8.786 C17.95,6.686 15.85,6.286 15.05,6.256 C13.25,6.056 11.55,7.256 10.75,7.256 C9.95,7.256 8.45,6.286 6.95,6.316 C4.95,6.346 3.05,7.386 2.05,9.186 C0.05,12.886 1.45,17.986 3.45,21.186 C4.45,22.786 5.65,24.586 7.25,24.536 C8.85,24.486 9.45,23.586 11.25,23.586 C13.05,23.586 13.55,24.536 15.25,24.506 C16.95,24.486 18.05,22.886 19.05,21.276 C20.25,19.576 20.75,17.876 20.75,17.826 C20.65,17.816 17.05,16.636 17.05,12.536 Z M14.45,5.186 C15.25,4.186 15.85,2.886 15.75,1.586 C14.65,1.636 13.35,2.286 12.55,3.286 C11.85,4.186 11.15,5.486 11.25,6.786 C12.45,6.886 13.65,6.186 14.45,5.186 Z" fill="#FFFFFF"/>
    </g>
</svg> 