<?xml version="1.0" encoding="UTF-8"?>
<svg width="24px" height="24px" viewBox="0 0 24 24" version="1.1" xmlns="http://www.w3.org/2000/svg">
    <g stroke="none" stroke-width="1" fill="none" fill-rule="evenodd">
        <path d="M21.8055,10.0415 L21.75,10.0415 L12,10.0415 L12,14.2915 L17.3955,14.2915 C16.83,16.1915 15.06,17.5415 12,17.5415 C8.6865,17.5415 6,14.855 6,11.5415 C6,8.228 8.6865,5.5415 12,5.5415 C13.71,5.5415 15.21,6.2915 16.29,7.4415 L19.14,4.5915 C17.34,2.8915 14.82,1.7915 12,1.7915 C6.477,1.7915 2,6.2685 2,11.7915 C2,17.3145 6.477,21.7915 12,21.7915 C17.523,21.7915 22,17.3145 22,11.7915 C22,11.1915 21.93,10.5915 21.8055,10.0415 Z" fill="#FFC107"/>
        <path d="M3.15295,7.3455 L6.43845,9.755 C7.32745,7.554 9.48045,5.957 12,5.957 C13.71,5.957 15.21,6.707 16.29,7.857 L19.14,5.007 C17.34,3.307 14.82,2.207 12,2.207 C8.15895,2.207 4.82795,4.3375 3.15295,7.3455 Z" fill="#FF3D00"/>
        <path d="M12,22 C14.82,22 17.34,20.935 19.14,19.235 L16.29,16.385 C15.21,17.535 13.71,18.285 12,18.285 C9.48045,18.285 7.32745,16.688 6.43845,14.487 L3.15295,16.897 C4.82795,19.905 8.15895,22 12,22 Z" fill="#4CAF50"/>
        <path d="M21.8055,10.041 L21.75,10.041 L12,10.041 L12,14.291 L17.3955,14.291 C17.13,15.361 16.38,16.261 15.39,16.785 L15.39,16.784 L18.435,19.109 C18.315,19.164 22,17.291 22,11.791 C22,11.191 21.93,10.591 21.8055,10.041 Z" fill="#1976D2"/>
    </g>
</svg> 